<svg width="271" height="41" viewBox="0 0 271 41" fill="none" xmlns="http://www.w3.org/2000/svg">
<rect x="1.31875" y="0.75625" width="120.488" height="39.4875" rx="6.58125" fill="black"/>
<rect x="1.31875" y="0.75625" width="120.488" height="39.4875" rx="6.58125" stroke="#A6A6A6" stroke-width="1.0125"/>
<path d="M83.3575 19.6909V22.0105H81.9035V23.5317H83.3575V28.7005C83.3575 30.4655 84.1559 31.1715 86.1646 31.1715C86.5176 31.1715 86.8538 31.1294 87.148 31.079V29.5746C86.8958 29.5998 86.7361 29.6166 86.4588 29.6166C85.5595 29.6166 85.1645 29.1964 85.1645 28.2383V23.5317H87.148V22.0105H85.1645V19.6909H83.3575Z" fill="white"/>
<path d="M92.265 31.2975C94.9376 31.2975 96.5765 29.5074 96.5765 26.5406C96.5765 23.5906 94.9292 21.792 92.265 21.792C89.5923 21.792 87.945 23.5906 87.945 26.5406C87.945 29.5074 89.5839 31.2975 92.265 31.2975ZM92.265 29.6923C90.6933 29.6923 89.8109 28.5408 89.8109 26.5406C89.8109 24.5571 90.6933 23.3973 92.265 23.3973C93.8282 23.3973 94.7191 24.5571 94.7191 26.5406C94.7191 28.5324 93.8282 29.6923 92.265 29.6923Z" fill="white"/>
<path d="M97.9787 31.121H99.7857V25.7169C99.7857 24.431 100.752 23.5654 102.122 23.5654C102.442 23.5654 102.979 23.6242 103.131 23.6746V21.8929C102.937 21.8424 102.593 21.8172 102.324 21.8172C101.13 21.8172 100.113 22.4728 99.8529 23.3721H99.7185V21.9685H97.9787V31.121Z" fill="white"/>
<path d="M107.617 23.33C108.954 23.33 109.828 24.2629 109.87 25.7001H105.247C105.348 24.2713 106.281 23.33 107.617 23.33ZM109.861 28.6501C109.525 29.3645 108.777 29.7595 107.685 29.7595C106.239 29.7595 105.306 28.7426 105.247 27.1373V27.0364H111.71V26.4061C111.71 23.5317 110.172 21.792 107.626 21.792C105.046 21.792 103.407 23.6494 103.407 26.5742C103.407 29.499 105.012 31.2975 107.634 31.2975C109.727 31.2975 111.189 30.289 111.601 28.6501H109.861Z" fill="white"/>
<path d="M71.5076 27.7411C71.647 29.9886 73.5199 31.4259 76.3074 31.4259C79.2866 31.4259 81.1508 29.9189 81.1508 27.5147C81.1508 25.6244 80.088 24.579 77.5096 23.978L76.1245 23.6382C74.4868 23.255 73.8248 22.741 73.8248 21.8438C73.8248 20.7113 74.8527 19.9709 76.3945 19.9709C77.858 19.9709 78.8685 20.6939 79.0514 21.8525H80.9504C80.8372 19.7357 78.973 18.2461 76.4207 18.2461C73.6767 18.2461 71.8474 19.7357 71.8474 21.9744C71.8474 23.8212 72.884 24.9188 75.1576 25.4501L76.7778 25.8421C78.4416 26.2341 79.1734 26.8091 79.1734 27.7673C79.1734 28.8823 78.0235 29.6924 76.4555 29.6924C74.7743 29.6924 73.607 28.9346 73.4415 27.7411H71.5076Z" fill="white"/>
<path d="M52.7892 21.8172C51.5453 21.8172 50.4696 22.4391 49.9149 23.4813H49.7804V21.9685H48.0406V34.1635H49.8476V29.7343H49.9905C50.4696 30.7008 51.5033 31.2723 52.806 31.2723C55.1173 31.2723 56.5881 29.4485 56.5881 26.5406C56.5881 23.6326 55.1173 21.8172 52.7892 21.8172ZM52.2765 29.6502C50.7637 29.6502 49.814 28.4568 49.814 26.549C49.814 24.6327 50.7637 23.4393 52.2849 23.4393C53.8146 23.4393 54.7307 24.6075 54.7307 26.5406C54.7307 28.482 53.8146 29.6502 52.2765 29.6502Z" fill="white"/>
<path d="M62.911 21.8172C61.6671 21.8172 60.5913 22.4391 60.0366 23.4813H59.9021V21.9685H58.1624V34.1635H59.9694V29.7343H60.1122C60.5913 30.7008 61.6251 31.2723 62.9278 31.2723C65.239 31.2723 66.7098 29.4485 66.7098 26.5406C66.7098 23.6326 65.239 21.8172 62.911 21.8172ZM62.3983 29.6502C60.8855 29.6502 59.9358 28.4568 59.9358 26.549C59.9358 24.6327 60.8855 23.4393 62.4067 23.4393C63.9363 23.4393 64.8524 24.6075 64.8524 26.5406C64.8524 28.482 63.9363 29.6502 62.3983 29.6502Z" fill="white"/>
<path d="M44.7986 31.121H46.8718L42.3334 18.551H40.234L35.6956 31.121H37.6991L38.8577 27.7847H43.6488L44.7986 31.121ZM41.1835 20.8333H41.3316L43.1522 26.147H39.3542L41.1835 20.8333Z" fill="white"/>
<path d="M36.9092 9.06985V15.1337H39.0986C40.9055 15.1337 41.9519 14.0201 41.9519 12.0829C41.9519 10.175 40.8971 9.06985 39.0986 9.06985H36.9092ZM37.8505 9.92711H38.9935C40.25 9.92711 40.9938 10.7255 40.9938 12.0955C40.9938 13.4864 40.2626 14.2765 38.9935 14.2765H37.8505V9.92711Z" fill="white"/>
<path d="M45.1566 15.222C46.4929 15.222 47.3123 14.3269 47.3123 12.8435C47.3123 11.3685 46.4887 10.4692 45.1566 10.4692C43.8202 10.4692 42.9966 11.3685 42.9966 12.8435C42.9966 14.3269 43.816 15.222 45.1566 15.222ZM45.1566 14.4193C44.3707 14.4193 43.9295 13.8436 43.9295 12.8435C43.9295 11.8517 44.3707 11.2718 45.1566 11.2718C45.9382 11.2718 46.3836 11.8517 46.3836 12.8435C46.3836 13.8394 45.9382 14.4193 45.1566 14.4193Z" fill="white"/>
<path d="M54.2906 10.5574H53.3871L52.5719 14.0495H52.5004L51.5591 10.5574H50.6935L49.7522 14.0495H49.6849L48.8655 10.5574H47.9494L49.2101 15.1337H50.1388L51.0801 11.7635H51.1515L52.097 15.1337H53.0341L54.2906 10.5574Z" fill="white"/>
<path d="M55.3311 15.1337H56.2346V12.4569C56.2346 11.7425 56.659 11.297 57.3272 11.297C57.9953 11.297 58.3147 11.6626 58.3147 12.398V15.1337H59.2182V12.1711C59.2182 11.0827 58.6551 10.4692 57.6339 10.4692C56.9448 10.4692 56.4909 10.776 56.2682 11.2844H56.201V10.5574H55.3311V15.1337Z" fill="white"/>
<path d="M60.6411 15.1337H61.5446V8.77148H60.6411V15.1337Z" fill="white"/>
<path d="M64.9425 15.222C66.2789 15.222 67.0983 14.3269 67.0983 12.8435C67.0983 11.3685 66.2746 10.4692 64.9425 10.4692C63.6062 10.4692 62.7826 11.3685 62.7826 12.8435C62.7826 14.3269 63.602 15.222 64.9425 15.222ZM64.9425 14.4193C64.1567 14.4193 63.7155 13.8436 63.7155 12.8435C63.7155 11.8517 64.1567 11.2718 64.9425 11.2718C65.7241 11.2718 66.1696 11.8517 66.1696 12.8435C66.1696 13.8394 65.7241 14.4193 64.9425 14.4193Z" fill="white"/>
<path d="M69.7903 14.4488C69.2986 14.4488 68.9414 14.2092 68.9414 13.7974C68.9414 13.394 69.2272 13.1797 69.8575 13.1376L70.9753 13.0662V13.4486C70.9753 14.0159 70.471 14.4488 69.7903 14.4488ZM69.5591 15.2094C70.1601 15.2094 70.6601 14.9488 70.9333 14.4908H71.0047V15.1337H71.8746V12.0072C71.8746 11.0407 71.2274 10.4692 70.0802 10.4692C69.0423 10.4692 68.3027 10.9735 68.2102 11.7593H69.0843C69.1851 11.4357 69.5339 11.2508 70.0382 11.2508C70.6559 11.2508 70.9753 11.524 70.9753 12.0072V12.4022L69.7356 12.4737C68.6472 12.5409 68.0337 13.0158 68.0337 13.8394C68.0337 14.6757 68.6767 15.2094 69.5591 15.2094Z" fill="white"/>
<path d="M74.9406 15.2094C75.5709 15.2094 76.1046 14.911 76.3777 14.4109H76.4492V15.1337H77.3148V8.77148H76.4114V11.2844H76.3441C76.0962 10.7802 75.5667 10.4818 74.9406 10.4818C73.7849 10.4818 73.0411 11.3979 73.0411 12.8435C73.0411 14.2933 73.7765 15.2094 74.9406 15.2094ZM75.1969 11.2928C75.9533 11.2928 76.4282 11.8938 76.4282 12.8477C76.4282 13.8058 75.9575 14.3983 75.1969 14.3983C74.4321 14.3983 73.974 13.8142 73.974 12.8435C73.974 11.8812 74.4363 11.2928 75.1969 11.2928Z" fill="white"/>
<path d="M83.1737 15.222C84.51 15.222 85.3294 14.3269 85.3294 12.8435C85.3294 11.3685 84.5058 10.4692 83.1737 10.4692C81.8373 10.4692 81.0137 11.3685 81.0137 12.8435C81.0137 14.3269 81.8331 15.222 83.1737 15.222ZM83.1737 14.4193C82.3878 14.4193 81.9466 13.8436 81.9466 12.8435C81.9466 11.8517 82.3878 11.2718 83.1737 11.2718C83.9553 11.2718 84.4007 11.8517 84.4007 12.8435C84.4007 13.8394 83.9553 14.4193 83.1737 14.4193Z" fill="white"/>
<path d="M86.5254 15.1337H87.4289V12.4569C87.4289 11.7425 87.8533 11.297 88.5215 11.297C89.1896 11.297 89.509 11.6626 89.509 12.398V15.1337H90.4125V12.1711C90.4125 11.0827 89.8494 10.4692 88.8282 10.4692C88.1391 10.4692 87.6852 10.776 87.4625 11.2844H87.3953V10.5574H86.5254V15.1337Z" fill="white"/>
<path d="M94.5736 9.41863V10.5785H93.8466V11.3391H94.5736V13.9235C94.5736 14.8059 94.9728 15.1589 95.9771 15.1589C96.1536 15.1589 96.3217 15.1379 96.4688 15.1127V14.3605C96.3427 14.3731 96.2629 14.3815 96.1242 14.3815C95.6746 14.3815 95.4771 14.1714 95.4771 13.6923V11.3391H96.4688V10.5785H95.4771V9.41863H94.5736Z" fill="white"/>
<path d="M97.6816 15.1337H98.5851V12.4611C98.5851 11.7677 98.9969 11.3013 99.7365 11.3013C100.375 11.3013 100.716 11.6711 100.716 12.4022V15.1337H101.619V12.1795C101.619 11.0911 101.018 10.4734 100.043 10.4734C99.3541 10.4734 98.8708 10.7802 98.6481 11.2928H98.5767V8.77148H97.6816V15.1337Z" fill="white"/>
<path d="M104.878 11.2382C105.547 11.2382 105.984 11.7047 106.005 12.4233H103.693C103.744 11.7089 104.21 11.2382 104.878 11.2382ZM106 13.8983C105.832 14.2554 105.458 14.453 104.912 14.453C104.189 14.453 103.723 13.9445 103.693 13.1418V13.0914H106.925V12.7762C106.925 11.3391 106.156 10.4692 104.883 10.4692C103.592 10.4692 102.773 11.3979 102.773 12.8603C102.773 14.3227 103.576 15.222 104.887 15.222C105.933 15.222 106.664 14.7177 106.87 13.8983H106Z" fill="white"/>
<path d="M25.891 20.8047C25.9129 19.1027 26.8269 17.4922 28.277 16.6007C27.3622 15.2943 25.83 14.466 24.2359 14.4161C22.5357 14.2376 20.8874 15.4335 20.021 15.4335C19.1378 15.4335 17.8039 14.4338 16.3674 14.4634C14.495 14.5239 12.7495 15.5884 11.8386 17.2253C9.88039 20.6156 11.341 25.5982 13.2168 28.3386C14.1553 29.6805 15.2521 31.1795 16.6873 31.1263C18.0917 31.0681 18.6162 30.2308 20.3114 30.2308C21.9909 30.2308 22.483 31.1263 23.9473 31.0925C25.4543 31.0681 26.4037 29.7447 27.3093 28.39C27.9836 27.4339 28.5025 26.3771 28.8467 25.2589C27.0757 24.5098 25.893 22.7276 25.891 20.8047Z" fill="white"/>
<path d="M23.1252 12.6138C23.9468 11.6275 24.3516 10.3596 24.2536 9.07959C22.9983 9.21144 21.8387 9.8114 21.0059 10.7599C20.1916 11.6867 19.7678 12.9322 19.8479 14.1634C21.1037 14.1763 22.3382 13.5926 23.1252 12.6138Z" fill="white"/>
<rect x="134.819" y="0.75625" width="135.675" height="39.4875" rx="4.55625" fill="black"/>
<rect x="134.819" y="0.75625" width="135.675" height="39.4875" rx="4.55625" stroke="#A6A6A6" stroke-width="1.0125"/>
<path d="M203.3 22.2731C200.919 22.2731 198.978 24.0844 198.978 26.5792C198.978 29.0588 200.919 30.8854 203.3 30.8854C205.683 30.8854 207.623 29.0588 207.623 26.5792C207.622 24.0844 205.682 22.2731 203.3 22.2731ZM203.3 29.1905C201.995 29.1905 200.87 28.1142 200.87 26.5802C200.87 25.0301 201.996 23.97 203.3 23.97C204.605 23.97 205.73 25.0301 205.73 26.5802C205.73 28.1132 204.605 29.1905 203.3 29.1905ZM193.87 22.2731C191.488 22.2731 189.547 24.0844 189.547 26.5792C189.547 29.0588 191.488 30.8854 193.87 30.8854C196.252 30.8854 198.193 29.0588 198.193 26.5792C198.193 24.0844 196.252 22.2731 193.87 22.2731ZM193.87 29.1905C192.565 29.1905 191.44 28.1142 191.44 26.5802C191.44 25.0301 192.566 23.97 193.87 23.97C195.175 23.97 196.3 25.0301 196.3 26.5802C196.301 28.1132 195.175 29.1905 193.87 29.1905ZM182.653 23.5954V25.4219H187.025C186.895 26.4496 186.552 27.1999 186.03 27.7213C185.394 28.3572 184.399 29.0588 182.653 29.0588C179.962 29.0588 177.858 26.889 177.858 24.1978C177.858 21.5066 179.962 19.3368 182.653 19.3368C184.105 19.3368 185.165 19.9079 185.948 20.6419L187.237 19.353C186.143 18.3091 184.692 17.5103 182.653 17.5103C178.967 17.5103 175.867 20.5113 175.867 24.1978C175.867 27.8843 178.967 30.8854 182.653 30.8854C184.643 30.8854 186.144 30.2323 187.318 29.0092C188.525 27.8023 188.9 26.1054 188.9 24.7355C188.9 24.3122 188.868 23.9204 188.802 23.5944H182.653V23.5954ZM228.528 25.0139C228.169 24.052 227.076 22.2731 224.841 22.2731C222.623 22.2731 220.779 24.0186 220.779 26.5792C220.779 28.993 222.606 30.8854 225.053 30.8854C227.026 30.8854 228.168 29.6785 228.642 28.9768L227.174 27.9977C226.685 28.7156 226.016 29.1884 225.053 29.1884C224.091 29.1884 223.405 28.748 222.965 27.8833L228.723 25.5019L228.528 25.0139ZM222.655 26.4496C222.606 24.7851 223.944 23.9376 224.907 23.9376C225.657 23.9376 226.293 24.3132 226.506 24.8509L222.655 26.4496ZM217.974 30.6252H219.866V17.9679H217.974V30.6252ZM214.874 23.2359H214.809C214.385 22.7297 213.569 22.2731 212.542 22.2731C210.389 22.2731 208.415 24.1654 208.415 26.5964C208.415 29.0102 210.389 30.8864 212.542 30.8864C213.57 30.8864 214.385 30.4298 214.809 29.9083H214.874V30.528C214.874 32.1753 213.993 33.0562 212.575 33.0562C211.416 33.0562 210.698 32.2249 210.405 31.5233L208.757 32.2087C209.23 33.3498 210.486 34.7531 212.575 34.7531C214.793 34.7531 216.669 33.448 216.669 30.2667V22.5353H214.875V23.2359H214.874ZM212.705 29.1905C211.4 29.1905 210.308 28.097 210.308 26.5964C210.308 25.0787 211.4 23.97 212.705 23.97C213.993 23.97 215.005 25.0787 215.005 26.5964C215.005 28.097 213.993 29.1905 212.705 29.1905ZM237.391 17.9679H232.864V30.6252H234.752V25.83H237.39C239.484 25.83 241.543 24.3143 241.543 21.8994C241.543 19.4846 239.485 17.9679 237.391 17.9679ZM237.44 24.0682H234.752V19.7297H237.44C238.852 19.7297 239.654 20.8991 239.654 21.8994C239.654 22.8795 238.852 24.0682 237.44 24.0682ZM249.116 22.2508C247.748 22.2508 246.331 22.8532 245.745 24.1887L247.422 24.8883C247.78 24.1887 248.448 23.9599 249.148 23.9599C250.125 23.9599 251.118 24.5461 251.135 25.588V25.7186C250.792 25.5232 250.059 25.2306 249.164 25.2306C247.357 25.2306 245.516 26.2238 245.516 28.0797C245.516 29.7737 246.999 30.8641 248.659 30.8641C249.929 30.8641 250.629 30.2941 251.069 29.6258H251.134V30.6029H252.958V25.75C252.959 23.5043 251.28 22.2508 249.116 22.2508ZM248.887 29.1874C248.269 29.1874 247.406 28.8776 247.406 28.1121C247.406 27.1351 248.481 26.7605 249.409 26.7605C250.239 26.7605 250.63 26.9397 251.135 27.1837C250.988 28.3572 249.978 29.1874 248.887 29.1874ZM259.602 22.5272L257.436 28.0149H257.372L255.124 22.5272H253.089L256.459 30.1969L254.538 34.4636H256.508L261.703 22.5272H259.602ZM242.586 30.6252H244.474V17.9679H242.586V30.6252Z" fill="white"/>
<path d="M182.323 10.6213C182.323 11.4698 182.072 12.1452 181.569 12.6494C180.998 13.2488 180.253 13.5485 179.337 13.5485C178.461 13.5485 177.714 13.2447 177.102 12.6372C176.488 12.0287 176.181 11.2754 176.181 10.3763C176.181 9.47621 176.488 8.72291 177.102 8.11541C177.714 7.5069 178.461 7.20315 179.337 7.20315C179.773 7.20315 180.189 7.2882 180.584 7.45729C180.98 7.62739 181.297 7.85317 181.533 8.13566L181 8.67026C180.598 8.18932 180.044 7.94936 179.336 7.94936C178.696 7.94936 178.144 8.17414 177.677 8.62369C177.21 9.07324 176.977 9.65745 176.977 10.3753C176.977 11.0932 177.21 11.6774 177.677 12.1269C178.144 12.5765 178.696 12.8013 179.336 12.8013C180.015 12.8013 180.581 12.5755 181.033 12.1229C181.327 11.8282 181.497 11.4182 181.543 10.8927H179.336V10.1627H182.28C182.31 10.3217 182.323 10.4745 182.323 10.6213Z" fill="white"/>
<path d="M186.991 8.08408H184.225V10.0099H186.72V10.7399H184.225V12.6656H186.991V13.4129H183.444V7.33787H186.991V8.08408Z" fill="white"/>
<path d="M190.282 13.4129H189.502V8.08408H187.805V7.33787H191.979V8.08408H190.282V13.4129Z" fill="white"/>
<path d="M195 13.4129V7.33787H195.78V13.4129H195Z" fill="white"/>
<path d="M199.242 13.4129H198.462V8.08408H196.765V7.33787H200.939V8.08408H199.242V13.4129Z" fill="white"/>
<path d="M208.841 12.6282C208.244 13.2417 207.502 13.5485 206.614 13.5485C205.726 13.5485 204.984 13.2417 204.387 12.6282C203.79 12.0146 203.492 11.2633 203.492 10.3754C203.492 9.4874 203.79 8.73612 204.387 8.12255C204.984 7.50897 205.726 7.20117 206.614 7.20117C207.497 7.20117 208.238 7.50998 208.837 8.1266C209.437 8.74321 209.737 9.49246 209.737 10.3754C209.737 11.2633 209.438 12.0146 208.841 12.6282ZM204.964 12.1189C205.413 12.5745 205.963 12.8013 206.614 12.8013C207.265 12.8013 207.816 12.5735 208.264 12.1189C208.714 11.6633 208.94 11.0821 208.94 10.3754C208.94 9.66863 208.714 9.08746 208.264 8.63183C207.816 8.17621 207.265 7.94941 206.614 7.94941C205.963 7.94941 205.413 8.17722 204.964 8.63183C204.515 9.08746 204.289 9.66863 204.289 10.3754C204.289 11.0821 204.515 11.6633 204.964 12.1189Z" fill="white"/>
<path d="M210.832 13.4129V7.33787H211.782L214.734 12.0632H214.768L214.734 10.8928V7.33787H215.515V13.4129H214.7L211.611 8.4577H211.577L211.611 9.62814V13.4129H210.832Z" fill="white"/>
<path d="M182.323 10.6213C182.323 11.4698 182.072 12.1452 181.569 12.6494C180.998 13.2488 180.253 13.5485 179.337 13.5485C178.461 13.5485 177.714 13.2447 177.102 12.6372C176.488 12.0287 176.181 11.2754 176.181 10.3763C176.181 9.47621 176.488 8.72291 177.102 8.11541C177.714 7.5069 178.461 7.20315 179.337 7.20315C179.773 7.20315 180.189 7.2882 180.584 7.45729C180.98 7.62739 181.297 7.85317 181.533 8.13566L181 8.67026C180.598 8.18932 180.044 7.94936 179.336 7.94936C178.696 7.94936 178.144 8.17414 177.677 8.62369C177.21 9.07324 176.977 9.65745 176.977 10.3753C176.977 11.0932 177.21 11.6774 177.677 12.1269C178.144 12.5765 178.696 12.8013 179.336 12.8013C180.015 12.8013 180.581 12.5755 181.033 12.1229C181.327 11.8282 181.497 11.4182 181.543 10.8927H179.336V10.1627H182.28C182.31 10.3217 182.323 10.4745 182.323 10.6213Z" stroke="white" stroke-width="0.2025" stroke-miterlimit="10"/>
<path d="M186.991 8.08408H184.225V10.0099H186.72V10.7399H184.225V12.6656H186.991V13.4129H183.444V7.33787H186.991V8.08408Z" stroke="white" stroke-width="0.2025" stroke-miterlimit="10"/>
<path d="M190.282 13.4129H189.502V8.08408H187.805V7.33787H191.979V8.08408H190.282V13.4129Z" stroke="white" stroke-width="0.2025" stroke-miterlimit="10"/>
<path d="M195 13.4129V7.33787H195.78V13.4129H195Z" stroke="white" stroke-width="0.2025" stroke-miterlimit="10"/>
<path d="M199.242 13.4129H198.462V8.08408H196.765V7.33787H200.939V8.08408H199.242V13.4129Z" stroke="white" stroke-width="0.2025" stroke-miterlimit="10"/>
<path d="M208.841 12.6282C208.244 13.2417 207.502 13.5485 206.614 13.5485C205.726 13.5485 204.984 13.2417 204.387 12.6282C203.79 12.0146 203.492 11.2633 203.492 10.3754C203.492 9.4874 203.79 8.73612 204.387 8.12255C204.984 7.50897 205.726 7.20117 206.614 7.20117C207.497 7.20117 208.238 7.50998 208.837 8.1266C209.437 8.74321 209.737 9.49246 209.737 10.3754C209.737 11.2633 209.438 12.0146 208.841 12.6282ZM204.964 12.1189C205.413 12.5745 205.963 12.8013 206.614 12.8013C207.265 12.8013 207.816 12.5735 208.264 12.1189C208.714 11.6633 208.94 11.0821 208.94 10.3754C208.94 9.66863 208.714 9.08746 208.264 8.63183C207.816 8.17621 207.265 7.94941 206.614 7.94941C205.963 7.94941 205.413 8.17722 204.964 8.63183C204.515 9.08746 204.289 9.66863 204.289 10.3754C204.289 11.0821 204.515 11.6633 204.964 12.1189Z" stroke="white" stroke-width="0.2025" stroke-miterlimit="10"/>
<path d="M210.832 13.4129V7.33787H211.782L214.734 12.0632H214.768L214.734 10.8928V7.33787H215.515V13.4129H214.7L211.611 8.4577H211.577L211.611 9.62814V13.4129H210.832Z" stroke="white" stroke-width="0.2025" stroke-miterlimit="10"/>
<g filter="url(#filter0_ii_71_10574)">
<path d="M144.879 7.88202C144.584 8.19387 144.41 8.67784 144.41 9.30458V31.697C144.41 32.3248 144.584 32.8077 144.879 33.1196L144.954 33.1925L157.498 20.6486V20.5008V20.353L144.954 7.80811L144.879 7.88202Z" fill="url(#paint0_linear_71_10574)"/>
<path d="M161.678 24.8313L157.498 20.6487V20.5008V20.353L161.679 16.1714L161.773 16.225L166.728 19.0398C168.142 19.8437 168.142 21.159 166.728 21.9639L161.773 24.7787L161.678 24.8313Z" fill="url(#paint1_linear_71_10574)"/>
<g filter="url(#filter1_i_71_10574)">
<path d="M161.773 24.7778L157.497 20.501L144.879 33.1198C145.345 33.6139 146.115 33.6746 146.983 33.1825L161.773 24.7778Z" fill="url(#paint2_linear_71_10574)"/>
</g>
<path d="M161.773 16.224L146.983 7.82026C146.115 7.32717 145.345 7.38893 144.879 7.88303L157.498 20.5018L161.773 16.224Z" fill="url(#paint3_linear_71_10574)"/>
</g>
<defs>
<filter id="filter0_ii_71_10574" x="144.41" y="7.47998" width="23.3782" height="26.0425" filterUnits="userSpaceOnUse" color-interpolation-filters="sRGB">
<feFlood flood-opacity="0" result="BackgroundImageFix"/>
<feBlend mode="normal" in="SourceGraphic" in2="BackgroundImageFix" result="shape"/>
<feColorMatrix in="SourceAlpha" type="matrix" values="0 0 0 0 0 0 0 0 0 0 0 0 0 0 0 0 0 0 127 0" result="hardAlpha"/>
<feOffset dy="-0.151875"/>
<feComposite in2="hardAlpha" operator="arithmetic" k2="-1" k3="1"/>
<feColorMatrix type="matrix" values="0 0 0 0 0 0 0 0 0 0 0 0 0 0 0 0 0 0 0.12 0"/>
<feBlend mode="normal" in2="shape" result="effect1_innerShadow_71_10574"/>
<feColorMatrix in="SourceAlpha" type="matrix" values="0 0 0 0 0 0 0 0 0 0 0 0 0 0 0 0 0 0 127 0" result="hardAlpha"/>
<feOffset dy="0.151875"/>
<feComposite in2="hardAlpha" operator="arithmetic" k2="-1" k3="1"/>
<feColorMatrix type="matrix" values="0 0 0 0 1 0 0 0 0 1 0 0 0 0 1 0 0 0 0.25 0"/>
<feBlend mode="normal" in2="effect1_innerShadow_71_10574" result="effect2_innerShadow_71_10574"/>
</filter>
<filter id="filter1_i_71_10574" x="144.879" y="20.501" width="16.8945" height="13.0215" filterUnits="userSpaceOnUse" color-interpolation-filters="sRGB">
<feFlood flood-opacity="0" result="BackgroundImageFix"/>
<feBlend mode="normal" in="SourceGraphic" in2="BackgroundImageFix" result="shape"/>
<feColorMatrix in="SourceAlpha" type="matrix" values="0 0 0 0 0 0 0 0 0 0 0 0 0 0 0 0 0 0 127 0" result="hardAlpha"/>
<feOffset dy="-0.151875"/>
<feComposite in2="hardAlpha" operator="arithmetic" k2="-1" k3="1"/>
<feColorMatrix type="matrix" values="0 0 0 0 0 0 0 0 0 0 0 0 0 0 0 0 0 0 0.08 0"/>
<feBlend mode="normal" in2="shape" result="effect1_innerShadow_71_10574"/>
</filter>
<linearGradient id="paint0_linear_71_10574" x1="156.386" y1="9.06766" x2="139.394" y2="26.0594" gradientUnits="userSpaceOnUse">
<stop stop-color="#00A0FF"/>
<stop offset="0.0066" stop-color="#00A1FF"/>
<stop offset="0.2601" stop-color="#00BEFF"/>
<stop offset="0.5122" stop-color="#00D2FF"/>
<stop offset="0.7604" stop-color="#00DFFF"/>
<stop offset="1" stop-color="#00E3FF"/>
</linearGradient>
<linearGradient id="paint1_linear_71_10574" x1="168.569" y1="20.5008" x2="144.07" y2="20.5008" gradientUnits="userSpaceOnUse">
<stop stop-color="#FFE000"/>
<stop offset="0.4087" stop-color="#FFBD00"/>
<stop offset="0.7754" stop-color="#FFA500"/>
<stop offset="1" stop-color="#FF9C00"/>
</linearGradient>
<linearGradient id="paint2_linear_71_10574" x1="159.451" y1="22.8236" x2="136.408" y2="45.8665" gradientUnits="userSpaceOnUse">
<stop stop-color="#FF3A44"/>
<stop offset="1" stop-color="#C31162"/>
</linearGradient>
<linearGradient id="paint3_linear_71_10574" x1="141.701" y1="0.428805" x2="151.99" y2="10.7181" gradientUnits="userSpaceOnUse">
<stop stop-color="#32A071"/>
<stop offset="0.0685" stop-color="#2DA771"/>
<stop offset="0.4762" stop-color="#15CF74"/>
<stop offset="0.8009" stop-color="#06E775"/>
<stop offset="1" stop-color="#00F076"/>
</linearGradient>
</defs>
</svg>
