<svg width="108" height="23" viewBox="0 0 108 23" fill="none" xmlns="http://www.w3.org/2000/svg">
<g clip-path="url(#clip0_71_11009)">
<g clip-path="url(#clip1_71_11009)">
<mask id="mask0_71_11009" style="mask-type:luminance" maskUnits="userSpaceOnUse" x="3" y="1" width="22" height="21">
<path d="M3.88745 1.09525H24.697V21.9048H3.88745V1.09525Z" fill="white"/>
</mask>
<g mask="url(#mask0_71_11009)">
<path d="M14.2857 6.35786C11.6467 0.0219052 4.14487 1.49883 4.09504 8.85281C4.06601 13.098 13.3471 19.8156 14.3027 20.6354C15.2325 19.9235 24.5179 13.0251 24.4884 8.80681C24.4396 1.43695 16.8058 0.27381 14.2857 6.35786Z" fill="#F7007D"/>
</g>
<path d="M1.15479 11.1369H15.6864V16.0036H1.15479V11.1369Z" fill="white"/>
<path d="M5.75098 7.08127H11.0908V20.0587H5.75098V7.08127Z" fill="white"/>
<path d="M27.3776 11.5482C27.3776 10.4853 27.5977 9.53952 28.0369 8.71152C28.4685 7.89183 29.1291 7.21528 29.9382 6.76419C30.7564 6.29378 31.6961 6.05885 32.7596 6.05885C34.1089 6.05885 35.2436 6.42192 36.1636 7.14752C37.0836 7.86326 37.6766 8.83966 37.9422 10.0762H34.7074C34.5136 9.66711 34.242 9.35552 33.8948 9.14085C33.5574 8.92619 33.1643 8.81885 32.7141 8.81885C32.0186 8.81885 31.4623 9.06911 31.0428 9.57019C30.6343 10.0609 30.4294 10.7202 30.4294 11.5482C30.4294 12.386 30.6343 13.0558 31.0428 13.5569C31.4623 14.0475 32.0192 14.2929 32.7141 14.2929C33.1643 14.2929 33.5574 14.1855 33.8948 13.9709C34.2425 13.7562 34.5136 13.4446 34.7074 13.0355H37.9428C37.6772 14.2726 37.0841 15.2534 36.1641 15.9795C35.2441 16.6953 34.1094 17.0529 32.7601 17.0529C31.6972 17.0529 30.7569 16.8229 29.9388 16.3629C29.1341 15.906 28.4749 15.2309 28.0374 14.4155C27.5983 13.5777 27.3781 12.6215 27.3781 11.5482H27.3776ZM49.0408 6.16619V16.9762H46.0355V12.6369H42.3708V16.9762H39.3655V6.16619H42.3708V10.2295H46.0355V6.16619H49.0408ZM53.7662 8.57352V10.3369H57.2162V12.6215H53.7662V14.5689H57.6762V16.9762H50.7609V6.16619H57.6762V8.57352H53.7662ZM58.7928 11.5482C58.7928 10.4853 59.013 9.53952 59.4522 8.71152C59.884 7.89196 60.5445 7.21545 61.3535 6.76419C62.1716 6.29378 63.1119 6.05885 64.1748 6.05885C65.5242 6.05885 66.6588 6.42192 67.5788 7.14752C68.4988 7.86326 69.0919 8.83966 69.3575 10.0762H66.1222C65.9283 9.66711 65.6572 9.35552 65.3095 9.14085C64.9722 8.92619 64.579 8.81885 64.1288 8.81885C63.4339 8.81885 62.877 9.06911 62.4575 9.57019C62.049 10.0609 61.8442 10.7202 61.8442 11.5482C61.8442 12.386 62.049 13.0558 62.4575 13.5569C62.877 14.0475 63.4339 14.2929 64.1288 14.2929C64.579 14.2929 64.9722 14.1855 65.3095 13.9709C65.6572 13.7562 65.9283 13.4446 66.1222 13.0355H69.3575C69.0919 14.2726 68.4988 15.2534 67.5788 15.9795C66.6588 16.6953 65.5242 17.0529 64.1748 17.0529C63.1119 17.0529 62.1716 16.8229 61.3535 16.3629C60.5489 15.9058 59.8898 15.2308 59.4522 14.4155C59.013 13.5777 58.7928 12.6215 58.7928 11.5482ZM77.1748 16.9762L73.7861 12.2382V16.9762H70.7808V6.16619H73.7861V10.8275L77.1441 6.16619H80.6094L76.6381 11.4102L80.8088 16.9762H77.1748ZM97.4608 6.16619V16.9762H94.4554V11.0115L92.4161 16.9762H89.9014L87.8468 10.9655V16.9762H84.8414V6.16619H88.4754L91.1894 13.1889L93.8421 6.16619H97.4608ZM102.177 8.57352V10.3369H105.627V12.6215H102.177V14.5689H106.087V16.9762H99.1715V6.16619H106.087V8.57352H102.177Z" fill="#F7007D"/>
</g>
</g>
<defs>
<clipPath id="clip0_71_11009">
<rect width="108" height="23" fill="white"/>
</clipPath>
<clipPath id="clip1_71_11009">
<rect width="105.69" height="23" fill="white" transform="translate(1.15479)"/>
</clipPath>
</defs>
</svg>
