<svg width="24" height="26" viewBox="0 0 24 26" fill="none" xmlns="http://www.w3.org/2000/svg">
<path d="M8 13C7.44772 13 7 13.4477 7 14C7 14.5523 7.44772 15 8 15V13ZM16 15C16.5523 15 17 14.5523 17 14C17 13.4477 16.5523 13 16 13V15ZM21 14C21 18.9706 16.9706 23 12 23V25C18.0751 25 23 20.0751 23 14H21ZM12 23C7.02944 23 3 18.9706 3 14H1C1 20.0751 5.92487 25 12 25V23ZM3 14C3 9.02944 7.02944 5 12 5V3C5.92487 3 1 7.92487 1 14H3ZM12 5C16.9706 5 21 9.02944 21 14H23C23 7.92487 18.0751 3 12 3V5ZM8 15H16V13H8V15Z" fill="#3A3D6A"/>
</svg>
