<svg width="168" height="24" viewBox="0 0 168 24" fill="none" xmlns="http://www.w3.org/2000/svg">
<path d="M0 12C0 18.6274 5.37258 24 12 24C18.6274 24 24 18.6274 24 12C24 5.37258 18.6274 0 12 0C5.37258 0 0 5.37258 0 12Z" fill="#1877F2"/>
<path d="M18 12C18 8.7 15.3 6 12 6C8.7 6 6 8.7 6 12C6 15 8.175 17.475 11.025 17.925V13.725H9.525V12H11.025V10.65C11.025 9.15 11.925 8.325 13.275 8.325C13.95 8.325 14.625 8.475 14.625 8.475V9.975H13.875C13.125 9.975 12.9 10.425 12.9 10.875V12H14.55L14.25 13.725H12.825V18C15.825 17.55 18 15 18 12Z" fill="white"/>
<path d="M48 12C48 18.6274 53.3726 24 60 24C66.6274 24 72 18.6274 72 12C72 5.37258 66.6274 0 60 0C53.3726 0 48 5.37258 48 12Z" fill="#1DA1F2"/>
<path d="M66 8.25C65.55 8.475 65.1 8.55 64.575 8.625C65.1 8.325 65.475 7.875 65.625 7.275C65.175 7.575 64.65 7.725 64.05 7.875C63.6 7.425 62.925 7.125 62.25 7.125C60.675 7.125 59.475 8.625 59.85 10.125C57.825 10.05 56.025 9.075 54.75 7.575C54.075 8.7 54.45 10.125 55.5 10.875C55.125 10.875 54.75 10.725 54.375 10.575C54.375 11.7 55.2 12.75 56.325 13.05C55.95 13.125 55.575 13.2 55.2 13.125C55.5 14.1 56.4 14.85 57.525 14.85C56.625 15.525 55.275 15.9 54 15.75C55.125 16.425 56.4 16.875 57.75 16.875C62.325 16.875 64.875 13.05 64.725 9.525C65.25 9.225 65.7 8.775 66 8.25Z" fill="white"/>
<path d="M96 12C96 18.6274 101.373 24 108 24C114.627 24 120 18.6274 120 12C120 5.37258 114.627 0 108 0C101.373 0 96 5.37258 96 12Z" fill="#F00073"/>
<path d="M108 6.8999C109.65 6.8999 109.875 6.8999 110.55 6.8999C111.15 6.8999 111.45 7.0499 111.675 7.1249C111.975 7.2749 112.2 7.3499 112.425 7.5749C112.65 7.7999 112.8 8.0249 112.875 8.3249C112.95 8.5499 113.025 8.8499 113.1 9.4499C113.1 10.1249 113.1 10.2749 113.1 11.9999C113.1 13.7249 113.1 13.8749 113.1 14.5499C113.1 15.1499 112.95 15.4499 112.875 15.6749C112.725 15.9749 112.65 16.1999 112.425 16.4249C112.2 16.6499 111.975 16.7999 111.675 16.8749C111.45 16.9499 111.15 17.0249 110.55 17.0999C109.875 17.0999 109.725 17.0999 108 17.0999C106.275 17.0999 106.125 17.0999 105.45 17.0999C104.85 17.0999 104.55 16.9499 104.325 16.8749C104.025 16.7249 103.8 16.6499 103.575 16.4249C103.35 16.1999 103.2 15.9749 103.125 15.6749C103.05 15.4499 102.975 15.1499 102.9 14.5499C102.9 13.8749 102.9 13.7249 102.9 11.9999C102.9 10.2749 102.9 10.1249 102.9 9.4499C102.9 8.8499 103.05 8.5499 103.125 8.3249C103.275 8.0249 103.35 7.7999 103.575 7.5749C103.8 7.3499 104.025 7.1999 104.325 7.1249C104.55 7.0499 104.85 6.9749 105.45 6.8999C106.125 6.8999 106.35 6.8999 108 6.8999ZM108 5.7749C106.275 5.7749 106.125 5.7749 105.45 5.7749C104.775 5.7749 104.325 5.9249 103.95 6.0749C103.575 6.2249 103.2 6.4499 102.825 6.8249C102.45 7.1999 102.3 7.4999 102.075 7.9499C101.925 8.3249 101.85 8.7749 101.775 9.4499C101.775 10.1249 101.775 10.3499 101.775 11.9999C101.775 13.7249 101.775 13.8749 101.775 14.5499C101.775 15.2249 101.925 15.6749 102.075 16.0499C102.225 16.4249 102.45 16.7999 102.825 17.1749C103.2 17.5499 103.5 17.6999 103.95 17.9249C104.325 18.0749 104.775 18.1499 105.45 18.2249C106.125 18.2249 106.35 18.2249 108 18.2249C109.65 18.2249 109.875 18.2249 110.55 18.2249C111.225 18.2249 111.675 18.0749 112.05 17.9249C112.425 17.7749 112.8 17.5499 113.175 17.1749C113.55 16.7999 113.7 16.4999 113.925 16.0499C114.075 15.6749 114.15 15.2249 114.225 14.5499C114.225 13.8749 114.225 13.6499 114.225 11.9999C114.225 10.3499 114.225 10.1249 114.225 9.4499C114.225 8.7749 114.075 8.3249 113.925 7.9499C113.775 7.5749 113.55 7.1999 113.175 6.8249C112.8 6.4499 112.5 6.2999 112.05 6.0749C111.675 5.9249 111.225 5.8499 110.55 5.7749C109.875 5.7749 109.725 5.7749 108 5.7749Z" fill="white"/>
<path d="M108 8.7749C106.2 8.7749 104.775 10.1999 104.775 11.9999C104.775 13.7999 106.2 15.2249 108 15.2249C109.8 15.2249 111.225 13.7999 111.225 11.9999C111.225 10.1999 109.8 8.7749 108 8.7749ZM108 14.0999C106.875 14.0999 105.9 13.1999 105.9 11.9999C105.9 10.8749 106.8 9.8999 108 9.8999C109.125 9.8999 110.1 10.7999 110.1 11.9999C110.1 13.1249 109.125 14.0999 108 14.0999Z" fill="white"/>
<path d="M111.3 9.4499C111.714 9.4499 112.05 9.11412 112.05 8.6999C112.05 8.28569 111.714 7.9499 111.3 7.9499C110.886 7.9499 110.55 8.28569 110.55 8.6999C110.55 9.11412 110.886 9.4499 111.3 9.4499Z" fill="white"/>
<path d="M144 12C144 18.6274 149.373 24 156 24C162.627 24 168 18.6274 168 12C168 5.37258 162.627 0 156 0C149.373 0 144 5.37258 144 12Z" fill="#2867B2"/>
<path d="M152.7 18H150.15V9.975H152.7V18ZM151.425 8.85C150.6 8.85 150 8.25 150 7.425C150 6.6 150.675 6 151.425 6C152.25 6 152.85 6.6 152.85 7.425C152.85 8.25 152.25 8.85 151.425 8.85ZM162 18H159.45V13.65C159.45 12.375 158.925 12 158.175 12C157.425 12 156.675 12.6 156.675 13.725V18H154.125V9.975H156.525V11.1C156.75 10.575 157.65 9.75 158.925 9.75C160.35 9.75 161.85 10.575 161.85 13.05V18H162Z" fill="white"/>
</svg>
