<svg width="121" height="19" viewBox="0 0 121 19" fill="none" xmlns="http://www.w3.org/2000/svg">
<path d="M9.82368 0.234804L12.5214 5.71896L18.5518 6.59859C18.6283 6.60997 18.7002 6.6425 18.7592 6.6925C18.8183 6.7425 18.8622 6.80799 18.886 6.88161C18.9099 6.95522 18.9127 7.03403 18.8942 7.10915C18.8756 7.18428 18.8365 7.25274 18.7812 7.30682L14.4183 11.5747L15.4484 17.6023C15.4617 17.6784 15.4534 17.7568 15.4243 17.8285C15.3953 17.9002 15.3468 17.9624 15.2843 18.0079C15.2218 18.0534 15.1478 18.0805 15.0706 18.0861C14.9935 18.0917 14.9163 18.0756 14.8479 18.0396L9.45374 15.1944L4.05961 18.0404C3.99121 18.0766 3.91405 18.0928 3.83688 18.0873C3.75972 18.0818 3.68565 18.0547 3.62309 18.0092C3.56054 17.9637 3.51201 17.9016 3.48301 17.8298C3.45401 17.7581 3.44572 17.6797 3.45907 17.6035L4.48915 11.5747L0.125087 7.30682C0.0697532 7.25274 0.0306183 7.18428 0.01209 7.10915C-0.00643837 7.03403 -0.00362419 6.95522 0.0202156 6.88161C0.0440554 6.80799 0.0879739 6.7425 0.147025 6.6925C0.206076 6.6425 0.277915 6.60997 0.35445 6.59859L6.38488 5.71896L9.0838 0.234804C9.11746 0.165308 9.17001 0.106699 9.23544 0.0656894C9.30087 0.0246801 9.37652 0.00292969 9.45374 0.00292969C9.53096 0.00292969 9.60662 0.0246801 9.67204 0.0656894C9.73747 0.106699 9.79002 0.165308 9.82368 0.234804Z" fill="#404375"/>
<path d="M35.3471 0.234804L38.0448 5.71896L44.0752 6.59859C44.1518 6.60997 44.2236 6.6425 44.2827 6.6925C44.3417 6.7425 44.3856 6.80799 44.4095 6.88161C44.4333 6.95522 44.4361 7.03403 44.4176 7.10915C44.3991 7.18428 44.3599 7.25274 44.3046 7.30682L39.9418 11.5747L40.9719 17.6023C40.9851 17.6784 40.9768 17.7568 40.9478 17.8285C40.9188 17.9002 40.8703 17.9624 40.8077 18.0079C40.7452 18.0534 40.6712 18.0805 40.5941 18.0861C40.5169 18.0917 40.4398 18.0756 40.3713 18.0396L34.9772 15.1944L29.583 18.0404C29.5146 18.0766 29.4375 18.0928 29.3603 18.0873C29.2832 18.0818 29.2091 18.0547 29.1465 18.0092C29.084 17.9637 29.0354 17.9016 29.0064 17.8298C28.9775 17.7581 28.9692 17.6797 28.9825 17.6035L30.0126 11.5747L25.6485 7.30682C25.5932 7.25274 25.5541 7.18428 25.5355 7.10915C25.517 7.03403 25.5198 6.95522 25.5437 6.88161C25.5675 6.80799 25.6114 6.7425 25.6705 6.6925C25.7295 6.6425 25.8014 6.60997 25.8779 6.59859L31.9083 5.71896L34.6072 0.234804C34.6409 0.165308 34.6935 0.106699 34.7589 0.0656894C34.8243 0.0246801 34.9 0.00292969 34.9772 0.00292969C35.0544 0.00292969 35.1301 0.0246801 35.1955 0.0656894C35.2609 0.106699 35.3135 0.165308 35.3471 0.234804Z" fill="#404375"/>
<path d="M60.8706 0.234804L63.5682 5.71896L69.5987 6.59859C69.6752 6.60997 69.747 6.6425 69.8061 6.6925C69.8652 6.7425 69.9091 6.80799 69.9329 6.88161C69.9568 6.95522 69.9596 7.03403 69.941 7.10915C69.9225 7.18428 69.8834 7.25274 69.828 7.30682L65.4652 11.5747L66.4953 17.6023C66.5086 17.6784 66.5002 17.7568 66.4712 17.8285C66.4422 17.9002 66.3937 17.9624 66.3312 18.0079C66.2687 18.0534 66.1946 18.0805 66.1175 18.0861C66.0404 18.0917 65.9632 18.0756 65.8948 18.0396L60.5006 15.1944L55.1065 18.0404C55.0381 18.0766 54.9609 18.0928 54.8838 18.0873C54.8066 18.0818 54.7325 18.0547 54.67 18.0092C54.6074 17.9637 54.5589 17.9016 54.5299 17.8298C54.5009 17.7581 54.4926 17.6797 54.5059 17.6035L55.536 11.5747L51.172 7.30682C51.1166 7.25274 51.0775 7.18428 51.059 7.10915C51.0404 7.03403 51.0433 6.95522 51.0671 6.88161C51.0909 6.80799 51.1348 6.7425 51.1939 6.6925C51.253 6.6425 51.3248 6.60997 51.4013 6.59859L57.4318 5.71896L60.1307 0.234804C60.1643 0.165308 60.2169 0.106699 60.2823 0.0656894C60.3477 0.0246801 60.4234 0.00292969 60.5006 0.00292969C60.5778 0.00292969 60.6535 0.0246801 60.7189 0.0656894C60.7843 0.106699 60.8369 0.165308 60.8706 0.234804Z" fill="#404375"/>
<path d="M86.394 0.234804L89.0917 5.71896L95.1221 6.59859C95.1986 6.60997 95.2705 6.6425 95.3295 6.6925C95.3886 6.7425 95.4325 6.80799 95.4563 6.88161C95.4802 6.95522 95.483 7.03403 95.4645 7.10915C95.4459 7.18428 95.4068 7.25274 95.3515 7.30682L90.9886 11.5747L92.0187 17.6023C92.032 17.6784 92.0237 17.7568 91.9947 17.8285C91.9657 17.9002 91.9171 17.9624 91.8546 18.0079C91.7921 18.0534 91.7181 18.0805 91.6409 18.0861C91.5638 18.0917 91.4866 18.0756 91.4182 18.0396L86.0241 15.1944L80.6299 18.0404C80.5615 18.0766 80.4844 18.0928 80.4072 18.0873C80.33 18.0818 80.256 18.0547 80.1934 18.0092C80.1309 17.9637 80.0823 17.9016 80.0533 17.8298C80.0243 17.7581 80.016 17.6797 80.0294 17.6035L81.0595 11.5747L76.6954 7.30682C76.6401 7.25274 76.6009 7.18428 76.5824 7.10915C76.5639 7.03403 76.5667 6.95522 76.5905 6.88161C76.6144 6.80799 76.6583 6.7425 76.7173 6.6925C76.7764 6.6425 76.8482 6.60997 76.9248 6.59859L82.9552 5.71896L85.6541 0.234804C85.6878 0.165308 85.7403 0.106699 85.8058 0.0656894C85.8712 0.0246801 85.9468 0.00292969 86.0241 0.00292969C86.1013 0.00292969 86.1769 0.0246801 86.2424 0.0656894C86.3078 0.106699 86.3603 0.165308 86.394 0.234804Z" fill="#404375"/>
<path d="M111.917 0.234804L114.615 5.71896L120.646 6.59859C120.722 6.60997 120.794 6.6425 120.853 6.6925C120.912 6.7425 120.956 6.80799 120.98 6.88161C121.004 6.95522 121.006 7.03403 120.988 7.10915C120.969 7.18428 120.93 7.25274 120.875 7.30682L116.512 11.5747L117.542 17.6023C117.555 17.6784 117.547 17.7568 117.518 17.8285C117.489 17.9002 117.441 17.9624 117.378 18.0079C117.316 18.0534 117.242 18.0805 117.164 18.0861C117.087 18.0917 117.01 18.0756 116.942 18.0396L111.547 15.1944L106.153 18.0404C106.085 18.0766 106.008 18.0928 105.931 18.0873C105.853 18.0818 105.779 18.0547 105.717 18.0092C105.654 17.9637 105.606 17.9016 105.577 17.8298C105.548 17.7581 105.539 17.6797 105.553 17.6035L106.583 11.5747L102.219 7.30682C102.164 7.25274 102.124 7.18428 102.106 7.10915C102.087 7.03403 102.09 6.95522 102.114 6.88161C102.138 6.80799 102.182 6.7425 102.241 6.6925C102.3 6.6425 102.372 6.60997 102.448 6.59859L108.479 5.71896L111.178 0.234804C111.211 0.165308 111.264 0.106699 111.329 0.0656894C111.395 0.0246801 111.47 0.00292969 111.547 0.00292969C111.625 0.00292969 111.7 0.0246801 111.766 0.0656894C111.831 0.106699 111.884 0.165308 111.917 0.234804Z" fill="#404375"/>
</svg>
